<svg aria-hidden="true" xmlns="http://www.w3.org/2000/svg" xmlns:xlink="http://www.w3.org/1999/xlink"><symbol viewBox="0 0 306 144" id="s1" xmlns="http://www.w3.org/2000/svg">
<g opacity="0.5">
<path fill-rule="evenodd" clip-rule="evenodd" d="M119 54.7919C119 90.1006 119.013 91.6982 119.325 94.4182C119.504 95.9772 119.738 97.666 119.845 98.1712C120.815 102.774 122.769 106.195 125.801 108.604C128.56 110.796 133.013 112.211 137.976 112.471L140.075 112.582L140.031 101.076C140.007 94.7472 140.007 86.6035 140.031 82.9783L140.075 76.3872L142.493 79.0532C145.914 82.8259 145.982 82.9023 147.38 84.4763C148.072 85.2566 148.679 85.9326 148.727 85.9785C148.803 86.0505 154.598 92.5307 156.028 94.1428C156.305 94.4551 156.607 94.794 156.7 94.8959C156.792 94.9979 158.114 96.4717 159.637 98.1712C161.16 99.8707 162.579 101.449 162.792 101.679C163.004 101.908 164.025 103.053 165.06 104.222L166.943 106.348L177.061 106.352C186.019 106.355 187.731 106.294 187.053 105.993C186.983 105.963 186.36 105.299 185.668 104.518C184.975 103.737 184.333 103.016 184.24 102.914C184.148 102.813 183.609 102.212 183.043 101.578C176.133 93.8419 172.609 89.9052 171.981 89.2194C171.889 89.1187 171.36 88.5179 170.806 87.8846C169.724 86.6491 168.748 85.5646 167.513 84.2273C166.843 83.5019 166.115 82.6835 163.585 79.8113C163.308 79.4968 162.648 78.7765 162.119 78.2106C161.591 77.6447 161.01 76.9941 160.829 76.7652C160.5 76.3498 160.5 76.3476 160.866 75.9421C161.068 75.7184 161.8 74.8978 162.493 74.1187C163.186 73.3393 163.828 72.621 163.921 72.5219C164.058 72.3753 165.779 70.4527 166.439 69.7078C166.721 69.3907 169.45 66.3658 169.63 66.1719C169.722 66.0722 170.289 65.4398 170.89 64.7665C171.49 64.0933 172.057 63.4609 172.149 63.361C172.241 63.2613 172.574 62.879 172.889 62.5116C173.204 62.1443 174.079 61.1672 174.835 60.3404C175.591 59.5136 176.505 58.499 176.866 58.0856C177.227 57.6722 177.563 57.2964 177.612 57.2505C177.661 57.2046 178.943 55.7765 180.461 54.077C181.979 52.3776 183.262 50.9495 183.311 50.9036C183.36 50.8577 183.966 50.1812 184.657 49.4004C185.349 48.6196 186.198 47.68 186.545 47.3126C186.891 46.9451 187.176 46.588 187.177 46.5192C187.178 46.4504 182.623 46.394 177.055 46.394H166.931L166.401 47.0203C165.683 47.8686 165.105 48.5207 164.367 49.3169C164.027 49.6843 162.238 51.6761 160.393 53.743C158.548 55.8099 156.999 57.5386 156.952 57.5845C156.904 57.6305 155.356 59.3592 153.512 61.4261C151.667 63.493 150.118 65.2217 150.068 65.2676C150.018 65.3135 149.041 66.4034 147.897 67.6894C146.753 68.9755 145.47 70.4036 145.045 70.8629C144.62 71.3222 143.706 72.3359 143.013 73.1154C142.321 73.895 141.614 74.6842 141.443 74.8691C141.272 75.0542 140.942 75.4498 140.709 75.7483C140.477 76.047 140.22 76.2911 140.138 76.2911C140.051 76.2911 140.006 64.0867 140.032 47.1456L140.075 18H129.537H119V54.7919ZM119.71 119.018C119.546 119.124 119.507 119.936 119.542 122.485L119.588 125.814H120.175H120.763L120.814 124.648C120.86 123.575 121.134 122.891 121.517 122.891C121.579 122.891 122.101 123.567 122.676 124.394L123.722 125.897H124.561C125.54 125.897 125.596 126.073 123.907 123.825C123.223 122.915 122.634 122.088 122.597 121.988C122.56 121.887 123.095 121.214 123.785 120.491C124.476 119.769 124.995 119.102 124.937 119.011C124.88 118.919 124.519 118.879 124.135 118.922C123.54 118.988 123.288 119.156 122.436 120.05C121.885 120.628 121.322 121.217 121.183 121.359C120.958 121.589 120.922 121.474 120.847 120.291C120.767 119.026 120.744 118.964 120.343 118.922C120.113 118.898 119.828 118.942 119.71 119.018ZM126.169 118.989C126.105 119.053 126.053 120.635 126.053 122.505V125.906L128.53 125.86L131.007 125.814V125.229V124.644L129.118 124.597L127.228 124.55V123.72V122.891H128.824H130.419V122.312V121.734L128.866 121.686L127.312 121.638V120.97V120.302L129.127 120.254L130.942 120.207L130.891 119.586L130.839 118.966L128.562 118.919C127.31 118.894 126.233 118.925 126.169 118.989ZM131.837 119.096C131.792 119.214 132.233 120.774 132.817 122.562L133.88 125.814H134.597H135.313L136.032 123.642C137.166 120.217 137.472 119.243 137.472 119.056C137.472 118.96 137.184 118.882 136.831 118.882C136.108 118.882 136.213 118.666 135.187 122.264C134.932 123.16 134.663 123.893 134.589 123.893C134.516 123.893 134.408 123.686 134.35 123.433C134.064 122.184 133.041 119.118 132.875 119.01C132.569 118.811 131.927 118.865 131.837 119.096ZM138.35 119.018C138.186 119.124 138.147 119.936 138.182 122.485L138.228 125.814H138.815H139.403V122.39V118.966L138.983 118.922C138.752 118.898 138.467 118.942 138.35 119.018ZM140.701 119.022C140.537 119.125 140.498 119.934 140.533 122.485L140.579 125.814H141.166H141.754L141.838 123.475L141.922 121.137L142.578 122.306C142.938 122.949 143.548 124.001 143.933 124.644C144.632 125.811 144.635 125.814 145.377 125.814H146.12L146.166 122.427C146.215 118.749 146.208 118.719 145.285 118.95C144.872 119.053 144.87 119.063 144.824 121.348L144.777 123.642L144.334 122.891C144.09 122.477 143.684 121.763 143.432 121.304C142.582 119.76 142.292 119.301 142.032 119.091C141.741 118.856 141.023 118.818 140.701 119.022ZM149.47 119.096C149.424 119.213 149.408 120.773 149.433 122.561L149.479 125.814L150.109 125.865L150.738 125.917V123.619C150.738 121.182 150.86 120.968 151.296 122.64C151.44 123.191 151.695 124.131 151.863 124.728L152.169 125.814L152.859 125.864C153.406 125.904 153.568 125.851 153.639 125.613C153.689 125.448 153.959 124.458 154.241 123.414C154.522 122.369 154.794 121.473 154.844 121.423C154.895 121.373 154.936 122.359 154.936 123.614V125.897H155.608H156.28V122.491C156.28 118.746 156.319 118.879 155.217 118.885C154.456 118.888 154.254 119.072 154.005 119.989C153.884 120.437 153.623 121.404 153.425 122.139C153.038 123.58 152.839 123.937 152.696 123.45C151.986 121.039 151.578 119.537 151.578 119.334C151.578 119.009 151.219 118.882 150.299 118.882C149.847 118.882 149.52 118.966 149.47 119.096ZM157.497 118.993C157.224 119.102 157.208 123.096 157.476 124.155C157.946 126.013 160.435 126.634 161.834 125.243C162.49 124.59 162.659 123.775 162.66 121.265L162.661 119.055L162.242 118.951C161.363 118.731 161.318 118.849 161.315 121.341C161.312 123.877 161.182 124.357 160.427 124.606C159.811 124.81 158.99 124.477 158.785 123.939C158.7 123.718 158.631 122.535 158.631 121.311C158.631 119.435 158.589 119.069 158.365 118.983C158.063 118.868 157.801 118.871 157.497 118.993ZM163.744 119.096C163.698 119.213 163.682 120.773 163.707 122.561L163.753 125.814H164.34H164.928L165.012 124.517C165.058 123.804 165.153 123.222 165.222 123.223C165.291 123.224 165.745 123.226 166.23 123.227C167.476 123.231 167.601 123.354 167.699 124.68L167.783 125.814L168.435 125.867L169.087 125.92L169.009 124.574C168.953 123.62 168.846 123.137 168.641 122.911C168.366 122.609 168.373 122.571 168.781 122.133C169.699 121.148 169.096 119.469 167.694 119.104C166.626 118.826 163.85 118.82 163.744 119.096ZM170.33 118.993C170.268 119.055 170.218 120.633 170.218 122.501V125.897H170.798H171.379L171.428 124.686L171.477 123.475L172.661 123.392C174.595 123.255 175.351 122.536 175.22 120.957C175.088 119.373 174.276 118.905 171.631 118.889C170.977 118.885 170.391 118.932 170.33 118.993ZM176.17 119.096C176.125 119.213 176.108 120.773 176.134 122.561L176.179 125.814H176.767H177.355L177.403 124.352L177.452 122.891H178.866H180.28L180.329 124.352L180.377 125.814H180.965H181.553L181.598 122.435L181.644 119.057L181.221 118.952C180.407 118.749 180.293 118.924 180.293 120.38V121.721H178.866H177.439V120.403C177.439 119.355 177.384 119.064 177.173 118.983C176.733 118.816 176.258 118.869 176.17 119.096ZM182.238 119.027C182.199 119.091 182.631 119.968 183.2 120.975C184.211 122.764 184.237 122.842 184.321 124.31L184.408 125.814H184.995H185.583L185.667 124.394C185.737 123.212 185.829 122.856 186.213 122.268C186.467 121.879 186.675 121.52 186.675 121.469C186.675 121.419 186.973 120.854 187.337 120.214L188 119.051L187.589 118.948C186.765 118.743 186.453 118.989 185.772 120.387C185.414 121.121 185.068 121.721 185.004 121.721C184.94 121.721 184.651 121.214 184.363 120.594C184.075 119.974 183.768 119.363 183.68 119.236C183.513 118.993 182.363 118.826 182.238 119.027ZM167.603 120.481C167.929 120.805 167.94 121.224 167.633 121.641C167.452 121.889 167.134 121.974 166.206 122.026L165.012 122.093V121.156V120.218H166.176C167.009 120.218 167.414 120.293 167.603 120.481ZM173.587 120.391C173.806 120.508 173.911 120.739 173.91 121.101C173.905 121.988 173.711 122.135 172.534 122.137L171.477 122.139L171.425 121.41C171.396 121.009 171.412 120.577 171.462 120.45C171.569 120.171 173.095 120.129 173.587 120.391ZM147.212 125.155V125.917L147.842 125.865C148.453 125.815 148.473 125.793 148.523 125.104L148.575 124.394H147.893H147.212V125.155Z"/>
</g>
</symbol><symbol viewBox="0 0 306 144" id="s2" xmlns="http://www.w3.org/2000/svg">
<g opacity="0.5">
<path fill-rule="evenodd" clip-rule="evenodd" d="M146.46 12.4733C122.924 15.9217 105.74 37.6275 108.242 60.746C109.377 71.2333 113.144 79.3328 120.393 86.8707C126.792 93.5257 134.728 98.0457 143.437 99.9965C148.161 101.054 158.85 101.065 163.213 100.015C176.644 96.7858 187.274 88.5109 193.391 76.5231C194.521 74.3088 196.014 70.6744 196.708 68.4467C197.861 64.7477 197.973 63.7153 197.999 56.5504C198.031 47.4568 197.359 44.3342 193.828 37.1669C185.255 19.767 165.822 9.63597 146.46 12.4733ZM150.533 15.7828C146.317 19.8926 146.83 23.1605 152.178 26.2467C158.758 30.043 159.778 32.5837 157.665 39.9046C155.569 47.1646 158.362 50.6661 168.378 53.335C176.689 55.5498 179.895 57.7452 180.241 61.4599C180.396 63.1204 180.362 63.2303 180.05 62.0885C179.458 59.9203 178.682 58.7536 177.042 57.5657C175.082 56.1465 173.636 55.6213 168.493 54.4606C161.387 52.8569 157.153 50.4261 155.253 46.8586C154.09 44.678 154.295 40.8502 155.75 37.5269C157.956 32.4927 157.16 29.8427 152.749 27.525C148.818 25.4593 147.27 24.1583 146.93 22.6349C146.436 20.4215 147.122 18.4984 149.197 16.2831L151.127 14.222L149.262 14.9863C146.891 15.9577 146.314 16.5369 145.512 18.754L144.86 20.5525L144.84 18.694C144.804 15.439 146.54 13.9442 150.42 13.8897L152.505 13.8606L150.533 15.7828ZM166.519 15.3065C169.77 16.3362 177.166 19.8317 177.166 20.3384C177.166 20.5184 176.354 20.793 175.361 20.9494C171.908 21.4931 169.616 24.2802 169.729 27.7983C169.765 28.9285 169.872 29.2862 169.977 28.629C170.607 24.6909 171.588 23.5524 174.353 23.5524C177.22 23.5524 178.267 24.8317 178 28.0087C177.543 33.4227 172.703 36.3773 167.274 34.5552C164.352 33.575 161.812 31.531 161.203 29.6706C160.42 27.2786 160.029 26.8988 157.996 26.5605C155.315 26.1147 153.431 24.7777 152.79 22.8656C152.119 20.8627 152.493 18.4102 153.618 17.4447C154.749 16.4742 156.572 15.5853 156.857 15.8659C156.988 15.9947 156.433 16.4368 155.625 16.8485C153.646 17.8555 153.069 19.4477 153.94 21.4977C154.312 22.3741 154.772 23.0908 154.963 23.0908C155.155 23.0908 156.096 22.2361 157.057 21.1913C158.515 19.6046 158.857 18.8362 159.129 16.5309L159.454 13.7711L161.531 14.0775C162.673 14.246 164.918 14.7993 166.519 15.3065ZM141.994 16.2836C141.496 17.3621 141.085 18.9825 141.079 19.8833C141.066 22.07 140.424 22.658 138.737 22.0308C137.593 21.6057 137.222 21.7045 135.926 22.7775C134.239 24.1754 133.464 24.3102 132.652 23.347C131.89 22.4424 132.224 20.511 133.111 20.7007C133.653 20.817 133.68 20.7265 133.236 20.2821C132.411 19.4546 131.224 20.5636 131.224 22.1623C131.224 23.7245 132.859 25.8599 134.055 25.8599C134.543 25.8599 135.684 25.5119 136.589 25.0869C138.129 24.3642 138.292 24.3642 139.103 25.0869C140.309 26.1617 141.197 26.0542 142.405 24.6872C143.559 23.3793 144.395 23.5168 144.013 24.9521C143.612 26.464 142.189 26.878 135.948 27.2984C128.497 27.8006 125.017 28.4347 122.333 29.78C118.001 31.9514 116.249 35.175 116.234 41.0048C116.223 45.0915 115.663 46.8693 114.522 46.4382C114.133 46.2914 113.956 46.3768 114.117 46.633C114.585 47.3788 116.156 47.1522 116.636 46.2693C116.881 45.8184 117.312 43.8201 117.593 41.8291C118.589 34.7832 120.829 31.6745 125.599 30.7192L127.24 30.3906L125.08 31.7649C122.091 33.6677 120.774 36.4211 120.801 40.7113C120.839 46.6625 124.175 50.787 129.239 51.1438C131.471 51.3011 132.147 51.1632 133.217 50.3315C133.926 49.7805 134.506 49.1011 134.506 48.8214C134.506 48.5418 133.967 48.8118 133.308 49.4214C130.919 51.6302 127.174 50.529 125.375 47.0894C123.735 43.9507 124.186 39.0439 126.409 35.8701C129.192 31.896 130.502 32.525 133.807 39.4223C137.408 46.9371 138.171 47.2422 140.897 42.2532L142.367 39.5649L142.679 42.2888C143.473 49.2142 140.536 59.0328 137.193 60.6269C135.465 61.4507 133.291 60.871 132.838 59.4653C132.379 58.0438 133.292 57.4319 134.836 58.1246C136.126 58.7033 136.127 58.7024 135.245 57.7429C134.182 56.5868 132.32 56.4968 131.144 57.5449C129.925 58.6313 129.986 61.5979 131.245 62.4665C132.085 63.0457 132.109 63.1634 131.441 63.4158C130.361 63.8238 129.269 63.7758 126.546 63.2012C123.621 62.5837 121.38 60.8475 121.38 59.1994C121.38 56.3819 124.954 55.2041 126.268 57.5888C126.927 58.785 126.969 58.7984 126.987 57.8195C127.031 55.3435 123.428 54.0965 120.536 55.5881C119.066 56.3459 116.58 58.8501 115.785 60.374C115.32 61.2661 114.99 61.3833 113.645 61.135C112.344 60.8946 111.845 61.0496 110.89 61.9897L109.723 63.138L109.394 60.1123C107.638 43.9682 116.913 26.956 131.997 18.6511C134.301 17.3829 141.767 14.396 142.804 14.3281C142.856 14.3249 142.491 15.205 141.994 16.2836ZM180.447 23.0908C180.963 23.5985 181.378 24.3775 181.371 24.8215C181.357 25.5719 181.321 25.5696 180.861 24.7901C180.588 24.3286 179.697 23.5505 178.882 23.0613C177.552 22.2624 177.508 22.1711 178.455 22.1697C179.035 22.1687 179.931 22.5832 180.447 23.0908ZM150.21 28.2976C151.499 28.9326 152.971 29.9064 153.481 30.4621C154.864 31.9685 154.707 34.6102 153.12 36.5305C148.353 42.2975 148.212 43.6604 151.856 48.7979C153.627 51.2947 154.387 52.8389 154.551 54.271C154.77 56.1825 154.675 56.3681 152.26 58.7181C150.875 60.0666 146.511 63.3184 142.562 65.944C133.568 71.9228 130.193 74.678 128.615 77.3294C126.495 80.8895 127.317 82.6516 132.631 85.9454L135.209 87.5431V82.8925C135.209 78.6244 135.321 78.0429 136.567 75.8286C137.703 73.8118 140.254 70.7829 139.589 72.2417C139.474 72.4956 139 73.5243 138.537 74.528C135.735 80.6006 136.782 88.0831 141.235 93.8173C142.172 95.0228 142.795 96.0095 142.621 96.0095C142.446 96.0095 140.602 94.2945 138.522 92.1988C136.259 89.9185 133.376 87.5939 131.343 86.4101C127.747 84.3162 126.537 82.7835 126.537 80.3228C126.537 76.5051 130.088 72.9649 141.493 65.4128C149.666 60.0006 153.028 57.1489 153.522 55.2101C153.862 53.8801 153.002 52.0428 150.291 48.2999C147.325 44.2059 147.357 40.3758 150.388 36.5997C153.894 32.2343 153.954 31.0694 150.762 29.4915C148.187 28.2187 145.757 26.405 145.757 25.7561C145.757 25.4709 146.232 25.6661 146.812 26.1899C147.391 26.7142 148.921 27.6621 150.21 28.2976ZM184.332 28.173C188.408 31.3288 183.852 37.6206 176.513 38.9737L174.689 39.3097L176.406 40.703C178.438 42.3515 179.525 44.2437 179.467 46.0279C179.427 47.2532 179.401 47.2366 178.962 45.7049C178.235 43.1652 175.907 41.141 171.189 38.946C166.638 36.8291 165.651 36.1613 168.61 37.2011C172.704 38.6391 177.895 37.3709 181.664 34.012C183.947 31.9768 184.469 30.2941 183.261 28.8611C182.505 27.9639 180.728 27.9709 179.967 28.8736C179.497 29.4306 179.49 29.8363 179.935 30.7972C180.436 31.8799 180.418 31.9486 179.77 31.4193C178.715 30.5576 178.875 28.7956 180.083 27.963C181.493 26.9902 182.895 27.0598 184.332 28.173ZM145.486 28.6091C147.961 29.1745 149.71 30.5327 149.891 32.0308C149.998 32.9196 149.441 34.0485 147.894 36.0741C146.714 37.6197 145.619 39.3928 145.461 40.0144C144.969 41.9431 145.554 44.8714 147.144 48.4342C149.894 54.5968 148.61 58.9982 143.267 61.7299C141.3 62.7355 140.187 62.9774 137.45 62.9926C134.452 63.0092 133.943 62.8828 132.996 61.8845C132.409 61.2652 132.276 61.0141 132.702 61.327C135.362 63.281 139.495 62.7014 142.699 59.9245C146.919 56.2679 147.719 52.6289 145.548 46.9634C144.269 43.6258 144.007 40.2793 144.896 38.6364C145.196 38.0821 146.274 36.5407 147.292 35.211C150.337 31.2328 148.989 29.5783 141.999 28.7185C138.514 28.2893 138.508 28.2861 141.069 28.2381C142.487 28.2113 144.475 28.3784 145.486 28.6091ZM141.718 31.2827C141.012 34.21 139.178 39.5497 138.622 40.2978C138.086 41.0173 137.707 40.6426 135.092 36.8069C133.481 34.4435 132.162 32.1683 132.162 31.7506C132.162 30.8101 134.942 30.1326 139.085 30.0629L142.024 30.0135L141.718 31.2827ZM187.95 34.6217C187.625 35.3956 186.203 37.0682 184.791 38.3387C181.871 40.9661 181.905 41.1918 185.513 43.2736C187.725 44.5502 191.488 44.9531 193.339 44.1122C194.175 43.7319 194.207 43.7698 193.635 44.4625C191.511 47.0322 185.895 46.2144 182.034 42.7729L179.78 40.7639L181.637 39.8991C183.889 38.8496 187.376 35.4233 187.772 33.8699C187.931 33.2482 188.169 32.8463 188.302 32.9769C188.434 33.1075 188.276 33.8477 187.95 34.6217ZM192.628 37.5292C192.632 37.7286 192.228 37.6769 191.729 37.4138C190.649 36.8448 190.292 36.8139 190.292 37.2883C190.292 37.4817 190.766 37.8453 191.346 38.0959C191.984 38.371 192.458 39.036 192.545 39.7758C192.826 42.1651 188.91 43.4213 187.01 41.5513C185.809 40.3684 185.814 40.3241 187.48 37.8592C188.252 36.7169 189.12 35.0827 189.408 34.2276L189.932 32.6732L191.276 34.9198C192.015 36.1558 192.623 37.3298 192.628 37.5292ZM125.455 34.0688C124.009 35.6412 123.13 38.5085 123.094 41.7714C123.054 45.3223 122.444 44.2571 122.364 40.4981C122.299 37.3944 124.232 33.2441 125.744 33.2441C126.002 33.2441 125.872 33.6151 125.455 34.0688ZM169.59 40.2129C170.697 40.2784 168.305 40.9873 166.786 41.0436C165.76 41.0819 165.418 40.7709 164.794 39.2345C163.646 36.4096 163.841 36.2988 166.426 38.3101C167.738 39.3314 169.162 40.1875 169.59 40.2129ZM162.657 41.6666C163.806 44.7749 164.121 44.858 168.349 43.1666C169.935 42.532 171.839 42.0128 172.58 42.0128C174.332 42.0128 176.021 43.6959 176.678 46.0962C177.626 49.5636 176.056 52.0437 174.28 49.8843C173.614 49.0753 173.415 49.0042 173.415 49.5765C173.415 50.596 175.008 52.0788 176.5 52.4471C179.214 53.1181 182.791 49.7242 182.791 46.4784V45.3689L184.98 46.4599C186.546 47.2408 187.957 47.5509 189.938 47.5509C192.373 47.5509 192.873 47.388 194.075 46.2051C194.827 45.4649 195.53 45.0006 195.639 45.1732C195.881 45.5586 196.676 50.158 197.066 53.4324C197.352 55.8313 197.345 55.8484 196.271 55.3661C194.578 54.6069 192.725 55.5355 191.857 57.5786C191.218 59.0859 191.197 60.0085 191.695 64.8502C192.008 67.9003 192.19 71.5379 192.099 72.934L191.932 75.4723L191.105 72.2417C188.406 61.7064 182.675 55.6426 171.672 51.6787C161.49 48.0101 159.548 46.5 159.638 42.3238C159.666 41.0104 159.952 39.3129 160.274 38.5515C160.944 36.9675 160.897 36.9062 162.657 41.6666ZM157.039 51.8199C158.689 54.0633 158.867 56.7368 157.51 58.9267C157.015 59.7265 154.955 61.7442 152.933 63.4107C148.609 66.9736 146.334 69.7703 144.332 73.9816C141.109 80.7621 142.3 89.3328 147.235 94.8659C150.709 98.761 157.008 99.7593 157.008 96.4147C157.008 95.4266 155.372 95.1973 154.946 96.1249C154.8 96.4424 154.731 96.2864 154.794 95.7788C154.928 94.6919 156.726 94.2816 157.737 95.1077C158.819 95.992 158.536 97.6931 157.125 98.7924C156.065 99.6181 155.438 99.7501 153.592 99.5378C145.584 98.6161 138.856 88.9683 139.829 79.8013C140.509 73.3992 143.501 68.8159 150.507 63.4476C156.318 58.995 157.656 57.2939 157.323 54.7865C157.193 53.8168 156.523 52.1836 155.833 51.1572C154.248 48.7979 155.201 49.3217 157.039 51.8199ZM196.784 57.4429C196.879 57.934 196.564 58.6369 196.085 59.0047C195.315 59.5963 195.31 59.642 196.034 59.396C196.701 59.1699 196.855 59.3882 196.855 60.565C196.855 62.8828 195.84 67.9704 195.462 67.5495C194.941 66.9694 193.859 57.916 194.205 57.0285C194.615 55.9767 196.56 56.2892 196.784 57.4429ZM171.946 62.088C176.628 63.9987 178.312 65.3071 178.729 67.3599C179.379 70.5604 176.766 74.2534 173.144 75.2517C171.444 75.7201 170.723 75.6994 168.971 75.1317C166.565 74.3522 166.337 74.6042 168.031 76.1706C169.735 77.7466 173.955 78.0028 176.571 76.6893C180.833 74.5483 182.996 70.1442 182.72 64.1653C182.558 60.6523 182.581 60.5604 183.423 61.3113C185.708 63.3466 187.487 68.1209 188.183 74.0878C188.636 77.9626 188.171 77.137 187.049 72.0719C186.524 69.7066 185.57 66.7008 184.928 65.3915L183.762 63.0115L184.097 64.8576C185.054 70.1303 184.027 73.941 180.84 76.9487C177.777 79.8386 172.933 80.7695 169.443 79.1395C167.486 78.2252 166.531 77.0068 166.097 74.8714L165.797 73.396L167.79 74.0878C171.682 75.4395 174.794 74.5137 176.699 71.4382C178.925 67.844 177.341 65.1894 171.706 63.0724C168.408 61.8333 165.58 59.6923 164.446 57.5754C164.136 56.9957 164.714 57.3732 165.776 58.4435C167.1 59.7782 168.92 60.853 171.946 62.088ZM164.179 61.2107C165.219 62.3511 167.506 63.9544 169.682 65.0689C174.816 67.6986 175.592 69.6143 172.319 71.5795C170.524 72.6566 168.823 72.7175 167.426 71.7539C166.124 70.8563 166.094 69.6425 167.347 68.5261C168.163 67.7988 168.457 67.7577 169.268 68.2561C170.651 69.1062 170.904 68.5344 169.535 67.6511C166.356 65.6006 162.714 70.8106 164.047 75.5C166.285 83.366 177.423 85.176 183.268 78.6235C184.069 77.7254 184.856 77.1208 185.017 77.2796C185.179 77.4383 185.311 78.8662 185.311 80.4525C185.311 82.7595 185.04 83.827 183.956 85.7866C182.407 88.5884 180.886 89.5484 177.996 89.5484C175.532 89.5484 173.773 88.4694 173.975 87.0807C174.096 86.2416 174.408 86.0967 175.977 86.1484L177.836 86.2098L176.746 85.3408C175.407 84.2738 173.513 84.2248 172.069 85.2203C171.19 85.8263 171.022 86.2878 171.182 87.6432C171.292 88.564 171.47 89.6217 171.578 89.9933C171.732 90.5217 171.023 90.7465 168.321 91.0247C165.266 91.339 164.715 91.273 163.545 90.4534C161.713 89.169 159.883 85.2517 159.103 80.9449C158.227 76.1046 158.235 67.4037 159.117 64.1653C159.498 62.7692 159.812 61.1239 159.815 60.5097C159.818 59.8949 160.187 58.9927 160.636 58.5049C161.411 57.6621 161.475 57.6589 161.925 58.4384C162.185 58.8898 163.2 60.1372 164.179 61.2107ZM120.666 62.3082C121.108 62.7891 122.452 63.6613 123.652 64.247C125.584 65.1898 126.516 65.3121 131.802 65.3154C138.049 65.3191 137.996 65.8037 131.693 66.3081C127.456 66.6468 123.471 65.9195 121.181 64.39L119.529 63.2861L118.994 65.2258C118.42 67.3031 118.696 72.9335 119.463 74.8225L119.914 75.9338L119.944 74.8336C119.998 72.8066 121.074 70.0906 122.359 68.737C124.595 66.3801 128.414 67.2362 129.14 70.2572C129.371 71.2195 129.167 71.771 128.243 72.6802C126.91 73.9927 126.159 74.1307 124.976 73.2801C124.282 72.7808 124.412 72.7032 125.941 72.7032C127.638 72.7032 127.708 72.6405 127.708 71.1382C127.708 69.0398 126.539 68.288 124.774 69.2511C121.739 70.9084 120.833 77.0248 122.963 81.4719C124.249 84.1556 125.315 85.1945 128.96 87.3119C131.446 88.7564 140.574 96.9325 139.701 96.9325C139.481 96.9325 137.537 95.3602 135.38 93.4384C133.223 91.5167 129.983 89.1805 128.179 88.2464C122.951 85.5406 119.381 81.3667 117.169 75.3735C115.645 71.2458 115.932 65.1202 117.834 61.1655L119.167 58.3964L119.515 59.9152C119.706 60.7506 120.225 61.8273 120.666 62.3082ZM112.915 64.1159C113.176 64.5968 113.603 66.8416 113.863 69.1044C114.398 73.7518 115.58 77.5066 117.639 81.0976C118.412 82.4457 118.967 83.5487 118.872 83.5487C118.506 83.5487 115.287 78.4518 113.74 75.4225C112.846 73.6729 111.682 70.8193 111.154 69.0808C110.226 66.0316 110.223 65.9278 111.07 66.1461C111.807 66.3358 111.865 66.2412 111.433 65.5604C110.878 64.6845 111.213 63.2423 111.973 63.2423C112.23 63.2423 112.654 63.6355 112.915 64.1159ZM154.301 67.52C153.461 70.9795 153.678 72.7023 155.594 77.7798C156.632 80.53 156.714 84.1381 155.806 87.1301C155.544 87.9926 155.724 88.2543 156.844 88.6383C157.589 88.8939 158.446 89.4934 158.749 89.9706C159.277 90.8023 159.2 90.8143 156.864 90.2646C144.169 87.2777 142.313 78.785 151.884 67.4752C153.459 65.6149 154.817 64.1621 154.903 64.247C154.989 64.3319 154.719 65.8046 154.301 67.52ZM174.15 89.4902C174.855 90.0362 176.271 90.6149 177.296 90.7764L179.162 91.07L178.046 91.9261C174.856 94.3748 167.349 97.6954 163.28 98.4574C161.839 98.7273 161.818 98.7043 161.865 96.9371C161.982 92.5159 155.857 90.7455 153.864 94.625C153.414 95.5019 153.27 95.5798 153.264 94.9503C153.245 92.6368 157.591 90.7557 160.353 91.8818C161.96 92.5371 163.566 94.7597 163.569 96.3307C163.571 97.3368 163.589 97.3391 166.028 96.6256C170.255 95.3902 177.721 91.3944 175.803 91.3944C174.823 91.3944 172.009 88.5137 172.038 87.5389L172.068 86.5485L172.468 87.5233C172.688 88.0591 173.445 88.9442 174.15 89.4902ZM127.899 114.621C126.763 115.211 125.2 116.579 124.427 117.66C123.196 119.38 123.021 120.021 123.021 122.777C123.021 125.542 123.195 126.172 124.447 127.925C126.432 130.707 128.906 131.99 132.298 132C141.193 132.024 145.603 121.84 139.173 116.122C136.807 114.017 135.577 113.547 132.439 113.547C130.754 113.547 129.307 113.889 127.899 114.621ZM138.051 115.875C139.873 117.551 140.6 119.23 140.6 121.759C140.6 124.563 139.11 127.489 136.707 129.404C134.508 131.156 130.388 131.637 127.997 130.42C123.536 128.149 123.183 121.079 127.337 117.181C129.966 114.714 130.687 114.43 133.905 114.594C136.225 114.712 137.071 114.974 138.051 115.875ZM143.413 123.008C143.413 130.831 143.481 131.546 144.233 131.546C144.984 131.546 145.054 130.849 145.054 123.354V115.162L146.4 115.011C149.382 114.675 151.382 115.953 151.382 118.195C151.382 119.851 149.913 121.393 148.335 121.393C147.691 121.393 147.163 121.55 147.163 121.743C147.163 121.935 148.376 123.876 149.859 126.055C151.341 128.234 152.77 130.385 153.035 130.835C153.299 131.285 153.889 131.577 154.346 131.484C155.028 131.345 154.582 130.47 151.845 126.585C149.721 123.569 148.765 121.854 149.208 121.854C149.591 121.854 150.553 121.316 151.346 120.659C153.257 119.076 153.346 116.815 151.553 115.427C150.558 114.655 149.649 114.47 146.865 114.47H143.413V123.008ZM156.07 123.008C156.07 130.29 156.174 131.546 156.773 131.546C157.373 131.546 157.476 130.29 157.476 123.008C157.476 115.726 157.373 114.47 156.773 114.47C156.174 114.47 156.07 115.726 156.07 123.008ZM160.758 123.008V131.546H163.165C166.515 131.546 169.05 130.696 170.396 129.122C172.541 126.611 171.491 123.356 168.167 122.215L166.79 121.742L168.215 120.89C168.999 120.421 169.77 119.526 169.929 118.902C170.67 115.995 168.571 114.47 163.829 114.47H160.758V123.008ZM172.946 123.008V131.546H178.103C180.939 131.546 183.26 131.366 183.26 131.146C183.26 130.926 181.818 130.848 180.055 130.972C175.126 131.319 174.822 131.026 174.822 125.936V121.743L177.634 121.944C179.181 122.053 180.447 121.975 180.447 121.768C180.447 121.562 179.181 121.393 177.634 121.393H174.822V118.112V114.83L178.338 115.005C180.271 115.101 181.853 115.021 181.853 114.825C181.853 114.63 179.849 114.47 177.4 114.47H172.946V123.008ZM167.216 115.65C167.943 116.151 168.259 116.84 168.259 117.924C168.259 119.962 166.492 121.393 163.976 121.393H162.164V118.47C162.164 116.862 162.305 115.408 162.477 115.239C163.064 114.661 166.173 114.93 167.216 115.65ZM167.79 122.913C169.53 123.78 170.205 125.482 169.627 127.545C168.988 129.823 167.511 130.713 164.666 130.534L162.399 130.392L162.263 126.354L162.128 122.316L164.373 122.323C165.608 122.326 167.145 122.592 167.79 122.913Z"/>
</g>
</symbol><symbol viewBox="0 0 306 144" id="s3" xmlns="http://www.w3.org/2000/svg">
<g opacity="0.5">
<path fill-rule="evenodd" clip-rule="evenodd" d="M144.332 23.2286C142.19 23.5798 138.42 24.7813 136.784 25.6347L135.728 26.1857L138.349 26.3373C144.749 26.7078 150.497 28.5271 155.19 31.6678L156.824 32.762L160.821 32.845C164.263 32.9166 165.094 33.0125 166.821 33.5387C167.923 33.8748 168.863 34.1871 168.908 34.2327C168.954 34.2784 166.896 34.3159 164.335 34.3159C161.774 34.3159 159.597 34.3977 159.496 34.4977C159.396 34.5977 159.793 35.0744 160.379 35.5571C162.422 37.24 165.879 40.8959 167.535 43.1267C170.431 47.0254 172.497 51.0849 173.512 54.8694C173.742 55.7288 174.005 56.5187 174.095 56.6249C174.186 56.7309 174.452 55.8655 174.686 54.7018C175.238 51.9633 175.248 47.5223 174.709 44.6835C172.709 34.1457 164.459 25.7022 153.979 23.4678C151.611 22.963 146.697 22.8411 144.332 23.2286ZM134.753 27.8968C133.653 29.1095 131.737 34.4277 131.208 37.7372C130.837 40.0509 130.907 45.2895 131.342 47.7778C131.879 50.8515 133.165 54.502 134.87 57.7952C136.573 61.0825 137.033 61.6491 136.746 60.1022C136.275 57.5709 136.216 53.5549 136.611 50.8738C137.855 42.4219 142.428 36.6665 149.763 34.32C150.491 34.0868 151.176 33.8159 151.284 33.7178C151.593 33.437 148.461 31.3339 145.506 29.8377C142.437 28.284 139.44 27.4648 136.824 27.4648C135.514 27.4648 135.059 27.5597 134.753 27.8968ZM130.957 29.4821C126.964 32.9142 123.918 37.8977 122.532 43.2676C121.897 45.7275 121.662 50.5433 122.048 53.1787C123.13 60.564 127.087 67.0918 133.014 71.2674C134.519 72.3278 137.7 74.1007 138.097 74.1007C138.179 74.1007 137.776 73.5511 137.2 72.8797C133.504 68.5654 130.369 63.2749 128.95 58.956C125.909 49.7024 126.916 39.2261 131.717 30.1692C132.366 28.9463 132.862 27.9456 132.821 27.9456C132.78 27.9456 131.941 28.6372 130.957 29.4821ZM152.412 36.5681C150.138 37.2946 147.554 38.8115 145.837 40.4274C143.952 42.2012 142.534 44.7943 142.037 47.374C141.613 49.5803 141.889 53.9412 142.647 56.9961C143.83 61.7667 146.831 68.42 150.093 73.4997L151.636 75.9036L152.686 75.8368C153.264 75.8002 154.496 75.5639 155.423 75.3117C159.74 74.1381 163.498 72.0181 166.902 68.8354L169.062 66.8151L168.913 65.2295C167.97 55.2215 164.666 47.4619 158.064 39.7524C155.847 37.1629 154.679 36.1071 154.061 36.1318C153.883 36.1388 153.141 36.3352 152.412 36.5681ZM71.7236 102.031C67.0208 108.529 62.0091 115.45 60.5866 117.411L58 120.977H59.6697H61.3391L65.7485 114.847L70.158 108.717H75.1518L80.1456 108.717L80.2099 114.787L80.2742 120.857L81.7812 120.928L83.2886 121L83.2264 105.664L83.1645 90.327L81.7193 90.2715L80.2742 90.2162L71.7236 102.031ZM208.533 102.842C208.533 110.932 208.449 115.425 208.3 115.332C208.171 115.253 203.341 109.622 197.565 102.818L187.063 90.4473H185.755H184.447V105.592V120.737H186.01H187.574L187.636 108.198L187.699 95.6606L191.466 100.085C193.537 102.519 198.338 108.161 202.132 112.623L209.032 120.737H210.385H211.738L211.582 118.032C211.496 116.545 211.425 109.676 211.425 102.767L211.423 90.2069H209.978H208.533V102.842ZM215.759 105.472V120.737H217.325H218.89V114.727V108.717H223.901H228.911L233.234 114.712L237.557 120.708L239.203 120.722C240.108 120.73 240.813 120.641 240.768 120.524C240.724 120.407 235.756 113.542 229.729 105.269L218.77 90.2266L217.264 90.2167L215.759 90.2069V105.472ZM87.3796 105.712V120.977L96.9538 120.968L106.528 120.958L107.371 119.831C107.835 119.211 108.25 118.621 108.294 118.518C108.339 118.416 104.355 118.333 99.4427 118.333H90.5108V104.39V90.4473H88.9452H87.3796V105.712ZM102.244 91.643C101.752 92.3007 101.35 92.8956 101.35 92.9651C101.35 93.0346 104.005 93.0916 107.251 93.0916H113.152V107.046V121L114.657 120.928L116.163 120.857L116.065 106.974L115.967 93.0916H121.132H126.296L127.191 91.8958C127.683 91.2381 128.085 90.6432 128.085 90.5737C128.085 90.5042 122.472 90.4473 115.612 90.4473H103.138L102.244 91.643ZM131.267 100.123C131.301 105.445 131.361 112.26 131.402 115.268L131.475 120.737H141.439H151.403L152.25 119.595L153.098 118.453L143.723 118.39L134.348 118.327V112.801V107.275H142.486H150.623L151.518 106.079C152.01 105.421 152.412 104.826 152.412 104.757C152.412 104.687 148.348 104.63 143.38 104.63H134.348V98.8609V93.0916H142.606H150.864L151.759 91.8958C152.251 91.2381 152.653 90.6432 152.653 90.5737C152.653 90.5042 147.828 90.4473 141.93 90.4473H131.206L131.267 100.123ZM157.229 105.577V120.737H158.795H160.361V113.985V107.233L164.275 107.316C168.858 107.413 169.184 107.527 170.851 109.626C171.452 110.382 173.321 113.191 175.004 115.868L178.064 120.736L179.838 120.736L181.612 120.737L181.257 120.196C181.062 119.898 179.357 117.245 177.469 114.3C175.266 110.865 173.564 108.486 172.721 107.665L171.407 106.384L172.647 106.237C175.398 105.912 177.79 104.167 179.08 101.544C179.65 100.385 179.748 99.8946 179.736 98.2366C179.725 96.6188 179.611 96.0625 179.06 94.9399C178.25 93.2863 176.663 91.8478 174.848 91.1199C173.544 90.597 173.152 90.5713 165.359 90.4963L157.229 90.4182V105.577ZM173.976 93.8127C175.157 94.4043 175.853 94.9399 176.322 95.6171C177.133 96.7878 177.412 98.6357 176.978 99.9494C176.552 101.237 174.963 102.86 173.256 103.751L171.802 104.51L166.081 104.586L160.361 104.662V98.735V92.8081L166.329 92.8896L172.296 92.9714L173.976 93.8127ZM222.864 100.342C224.984 103.268 226.754 105.754 226.798 105.867C226.843 105.98 225.081 106.073 222.884 106.073H218.89L218.889 103.248C218.888 101.695 218.818 99.2066 218.732 97.7191C218.642 96.1546 218.667 95.0164 218.793 95.0185C218.913 95.0207 220.745 97.4162 222.864 100.342ZM80.1537 100.664V106.073H76.1795C73.9937 106.073 72.2053 106.009 72.2053 105.932C72.2053 105.751 79.9213 95.2551 80.0543 95.2551C80.1089 95.2551 80.1537 97.689 80.1537 100.664ZM243.543 115.671C242.672 116.201 242.139 117.503 242.367 118.54C242.45 118.918 242.845 119.539 243.245 119.921C243.848 120.499 244.176 120.616 245.178 120.616C246.265 120.616 246.468 120.526 247.21 119.718C248.412 118.409 248.222 116.592 246.778 115.583C246.044 115.07 244.46 115.113 243.543 115.671ZM246.384 115.948C247.145 116.354 247.576 117.625 247.297 118.636C246.849 120.256 245.054 120.756 243.717 119.633C243.094 119.11 242.976 118.841 242.976 117.94C242.976 117.123 243.117 116.728 243.568 116.278C244.212 115.635 245.513 115.483 246.384 115.948ZM244.181 117.958C244.181 118.849 244.285 119.535 244.421 119.535C244.554 119.535 244.662 119.21 244.662 118.813C244.662 118.417 244.765 118.092 244.889 118.092C245.014 118.092 245.309 118.417 245.544 118.813C245.778 119.21 246.055 119.535 246.16 119.535C246.447 119.535 246.386 119.215 245.99 118.651C245.672 118.198 245.674 118.125 246.007 117.998C246.249 117.905 246.354 117.622 246.304 117.192C246.236 116.599 246.121 116.522 245.204 116.456L244.181 116.382V117.958ZM245.789 117.035C245.939 117.424 245.515 117.841 244.963 117.848C244.798 117.85 244.662 117.581 244.662 117.251C244.662 116.807 244.79 116.65 245.152 116.65C245.421 116.65 245.707 116.823 245.789 117.035Z"/>
</g>
</symbol><symbol viewBox="0 0 306 144" id="s4" xmlns="http://www.w3.org/2000/svg">
<g opacity="0.5">
<path fill-rule="evenodd" clip-rule="evenodd" d="M152.297 18.1294C152.297 18.2009 152.364 18.3197 152.447 18.3935C152.578 18.5107 152.76 18.5338 153.89 18.5759C154.601 18.6025 155.359 18.6557 155.575 18.6941C155.791 18.7325 156.167 18.7663 156.412 18.7691L156.858 18.7742V18.4318V18.0895L156.484 18.045C156.278 18.0206 155.252 18.0003 154.203 18C152.398 17.9994 152.297 18.0062 152.297 18.1294ZM146.112 18.2486C146.062 18.3052 145.96 18.3516 145.886 18.3516C145.704 18.3516 145.639 18.5873 145.757 18.8259C145.834 18.9845 145.892 19.0164 146.064 18.9974C146.18 18.9846 146.58 18.9588 146.952 18.94C147.325 18.9211 147.66 18.8761 147.697 18.84C147.734 18.8038 148.013 18.7742 148.316 18.7742C148.936 18.7742 149.09 18.6893 149.09 18.3466V18.1403L147.647 18.143C146.473 18.1451 146.187 18.1649 146.112 18.2486ZM143.888 18.5843C143.888 18.6348 143.994 18.7775 144.123 18.9013C144.302 19.0721 144.422 19.1264 144.622 19.1264H144.886V18.8094V18.4925H144.387C144.025 18.4925 143.888 18.5175 143.888 18.5843ZM139.976 19.373C139.325 19.5173 138.708 19.7282 137.68 20.1576C136.852 20.5037 136.025 20.7355 134.838 20.954C134.583 21.001 134.167 21.1451 133.912 21.2744C133.657 21.4037 133.24 21.5611 132.985 21.6241C132.731 21.6872 132.314 21.8484 132.059 21.9822C131.804 22.1161 131.051 22.4991 130.384 22.8333C127.964 24.0473 125.929 25.2499 124.016 26.5968C123.17 27.1925 122.87 27.3676 122.693 27.3676C122.269 27.3676 120.741 28.4685 119.268 29.8353C118.797 30.2716 118.06 30.913 117.629 31.2608C117.191 31.6141 116.788 32.0004 116.715 32.1365C116.617 32.3221 116.471 32.4329 116.1 32.6032C115.642 32.8134 115.598 32.8551 115.346 33.3109C115.199 33.5773 114.994 33.8437 114.889 33.9028C114.779 33.9653 114.644 34.1465 114.568 34.3342C114.49 34.5253 114.214 34.8923 113.894 35.2301C113.597 35.5449 113.177 36.0803 112.961 36.42C112.518 37.1189 112.121 37.4551 111.577 37.5946L111.226 37.6845L110.739 38.6717C110.428 39.3036 110.084 39.8745 109.783 40.2577C109.349 40.8095 109.097 41.2058 108.257 42.6526C107.543 43.8825 106.216 45.3475 105.194 46.0335C104.886 46.24 104.718 46.4143 104.596 46.6527C104.365 47.1069 104.087 47.8891 103.987 48.3692C103.904 48.7643 103.899 48.7709 103.332 49.1385C102.884 49.4293 102.725 49.5789 102.595 49.8319C102.209 50.5848 101.528 52.3752 101.134 53.6713L100.857 54.5821L101.137 55.086C101.291 55.3631 101.417 55.6377 101.417 55.6961C101.417 55.8623 100.75 56.7595 100.469 56.9714C100.26 57.1288 100.201 57.2332 100.133 57.5675C100.087 57.7904 99.9101 58.5909 99.7396 59.3463C99.3434 61.1018 98.9903 62.9277 98.6772 64.8405C97.8919 69.6384 97.829 71.3829 98.2859 75.6879C99.6866 88.8829 103.682 99.0205 110.668 107.103C112.647 109.393 117.203 113.669 120.18 116.031C121.878 117.378 123.848 118.69 125.804 119.776C126.285 120.043 126.835 120.359 127.025 120.479C127.304 120.655 127.448 120.698 127.761 120.698C128.121 120.698 128.172 120.676 128.433 120.416C128.599 120.25 128.782 120.134 128.879 120.134C129.126 120.134 131.08 120.957 131.213 121.116C131.277 121.193 131.352 121.439 131.38 121.663C131.495 122.576 131.76 122.828 133.038 123.238C133.717 123.456 134.106 123.539 134.573 123.566C135.077 123.596 135.212 123.627 135.267 123.729C135.401 123.976 135.887 124.08 137.225 124.145C138.252 124.195 138.7 124.252 139.47 124.428C140.752 124.723 141.167 124.824 141.929 125.027C142.378 125.147 142.764 125.199 143.22 125.202C143.633 125.204 143.966 125.245 144.13 125.312C144.272 125.371 144.781 125.517 145.261 125.637C146.167 125.863 147.619 126.005 148.983 126C149.729 125.997 150.319 125.822 150.362 125.591C150.438 125.186 150.654 125.187 151.054 125.593C151.354 125.899 151.381 125.91 151.789 125.91C152.172 125.91 152.231 125.889 152.391 125.701C152.489 125.586 152.591 125.361 152.618 125.201L152.668 124.911L152.999 124.955C153.915 125.078 154.148 125.08 154.193 124.965C154.231 124.867 154.448 124.853 155.924 124.853H157.612L157.93 125.176L158.247 125.498L158.782 125.452C159.371 125.4 160.08 125.392 160.752 125.428C161.093 125.447 161.22 125.425 161.327 125.329C161.439 125.229 161.599 125.206 162.178 125.206C162.845 125.206 162.901 125.194 163.057 125.029C163.208 124.871 163.281 124.853 163.771 124.853C164.357 124.853 165.222 124.667 165.671 124.445C165.821 124.371 166.164 124.29 166.432 124.266C167.023 124.214 167.325 124.056 167.499 123.707C167.629 123.446 167.633 123.445 168.069 123.445C168.424 123.445 168.646 123.388 169.222 123.151C169.613 122.989 170.039 122.767 170.167 122.659C170.506 122.37 170.734 122.27 171.495 122.075C172.169 121.901 172.473 121.78 172.82 121.543C172.918 121.477 173.143 121.4 173.319 121.373C173.495 121.347 173.8 121.235 173.996 121.127C174.506 120.843 175.399 120.465 176.094 120.237C176.424 120.129 176.885 119.915 177.119 119.761C177.554 119.475 178.205 119.163 178.682 119.011C178.829 118.964 178.982 118.865 179.023 118.791C179.106 118.636 179.45 118.444 179.643 118.444C179.715 118.444 179.931 118.286 180.123 118.093C180.394 117.821 180.576 117.71 180.939 117.594C181.714 117.347 182.132 117.122 182.281 116.87C182.457 116.576 182.615 116.458 183.866 115.681C184.434 115.328 185.064 114.919 185.266 114.773C185.467 114.626 185.716 114.485 185.818 114.459C185.92 114.434 186.003 114.39 186.003 114.362C186.003 114.234 186.549 113.791 186.814 113.704C187.172 113.587 187.525 113.157 187.91 112.37C188.139 111.903 188.215 111.81 188.446 111.718C188.593 111.659 188.759 111.611 188.813 111.611C188.868 111.611 189.066 111.397 189.253 111.136C189.651 110.58 189.666 110.567 189.998 110.512C190.21 110.477 190.279 110.417 190.425 110.143C190.825 109.388 191.981 108.494 192.903 108.224C193.172 108.146 193.278 108.046 193.74 107.44C194.309 106.694 194.359 106.534 194.167 106.081C194.068 105.847 194.071 105.834 194.256 105.705C194.539 105.508 195.12 105.229 195.453 105.131C195.638 105.076 195.787 104.974 195.86 104.853C195.923 104.747 196.12 104.522 196.298 104.351C196.598 104.063 196.621 104.015 196.621 103.684C196.621 103.37 196.671 103.248 197.031 102.686C197.428 102.066 197.451 102.044 197.759 101.997C197.993 101.961 198.147 101.878 198.347 101.681L198.617 101.414V100.735C198.617 100.321 198.654 99.9661 198.713 99.8281C198.9 99.3899 199.375 98.8846 199.787 98.6853C200.004 98.5803 200.37 98.3156 200.6 98.097C200.944 97.7697 201.058 97.5978 201.246 97.1227L201.474 96.5456L201.318 96.2422C201.232 96.0753 201.082 95.8352 200.984 95.7088L200.807 95.4789L200.968 95.0396C201.198 94.4125 201.507 93.8224 201.871 93.3149L202.187 92.8746H202.815C203.34 92.8746 203.474 92.851 203.629 92.7306C203.842 92.5642 203.96 92.2087 203.961 91.7278C203.961 91.5425 204.009 91.2771 204.068 91.1381C204.128 90.996 204.175 90.6717 204.175 90.3979C204.175 89.8003 204.345 89.4299 204.745 89.1564C204.899 89.0514 205.026 88.92 205.027 88.8645C205.033 88.6679 205.548 86.5582 205.794 85.7252C205.932 85.2603 206.07 84.7056 206.103 84.4926C206.135 84.2795 206.258 83.8353 206.376 83.5055C206.682 82.6536 206.814 81.822 206.87 80.4072C206.914 79.3105 206.936 79.1512 207.07 78.9632C207.675 78.1163 207.833 77.4084 207.77 75.8332C207.733 74.9074 207.744 74.6011 207.826 74.3495C207.902 74.1178 207.925 73.7485 207.911 72.976C207.901 72.3949 207.927 71.6342 207.968 71.2855C208.045 70.6266 207.984 68.9386 207.778 66.0027C207.674 64.5231 207.626 64.2312 207.344 63.3434C207.248 63.043 207.155 62.5834 207.136 62.3221C207.096 61.7648 206.611 59.4375 206.352 58.562C206.164 57.9278 205.601 56.5418 205.42 56.2689C205.362 56.1821 205.315 55.9812 205.315 55.8223C205.315 55.5141 205.236 55.314 205.022 55.0807C204.948 55.0009 204.794 54.6047 204.679 54.2002C204.563 53.7957 204.358 53.1929 204.222 52.8605C203.741 51.6854 202.04 48.4576 200.718 46.2097C199.654 44.4013 198.833 42.9357 198.351 41.9834C197.76 40.8169 197.422 40.254 196.997 39.7275C196.81 39.4961 196.516 39.0374 196.344 38.7081C195.612 37.3052 194.824 36.2536 194.223 35.8785C193.676 35.5371 193.369 35.1939 193.017 34.5328C192.712 33.9585 192.259 33.4912 191.769 33.2461C191.582 33.1524 191.384 33.0117 191.329 32.9335C191.273 32.8554 191.022 32.6604 190.771 32.5002C190.52 32.34 189.742 31.7657 189.043 31.2238C187.802 30.2629 184.598 28.0886 183.917 27.746C183.73 27.6518 183.109 27.4012 182.538 27.1893L181.5 26.8041H179.535H177.571L176.755 27.2313C175.248 28.0204 174.684 28.4056 173.88 29.195C172.711 30.343 171.326 32.2581 171.286 32.7812C171.275 32.9338 171.226 33.1311 171.178 33.2196C171.068 33.4238 171.045 33.67 170.997 35.2C170.969 36.0994 170.982 36.4905 171.044 36.6042C171.091 36.691 171.142 37.1201 171.157 37.5577C171.188 38.4679 171.357 39.0389 171.975 40.3281C172.618 41.6699 173.15 42.3829 173.73 42.6791C173.866 42.7491 173.962 42.8745 174.017 43.0549C174.119 43.3904 174.494 43.7598 174.86 43.8837C175.107 43.9674 175.154 44.0239 175.307 44.4163C175.413 44.6917 175.582 44.9564 175.759 45.1262C176.097 45.4507 176.96 45.8927 177.255 45.8927C177.371 45.8927 177.776 46.0154 178.154 46.1655C178.532 46.3154 179.082 46.4971 179.376 46.5693C179.761 46.6638 180 46.7726 180.231 46.9582C180.599 47.2535 181.02 47.4738 181.352 47.5446C181.6 47.5975 181.942 47.9414 181.942 48.1383C181.942 48.2072 182.166 48.4257 182.458 48.6423C182.742 48.8526 184.081 50.1067 185.433 51.4293C187.149 53.1073 187.967 53.8605 188.142 53.9216C188.322 53.9846 188.452 54.1082 188.605 54.3606C188.833 54.7369 189.612 55.5027 189.839 55.574C189.932 55.6032 189.991 55.707 190.022 55.8961C190.103 56.4003 190.346 56.9208 190.746 57.4492C191.212 58.0653 191.717 58.9042 191.887 59.3463C191.955 59.5207 192.121 59.7597 192.258 59.8776C192.459 60.051 192.532 60.192 192.641 60.6158C192.715 60.9038 192.871 61.3419 192.988 61.5892C193.136 61.9022 193.201 62.1487 193.202 62.4006C193.204 62.8526 193.388 63.2566 193.73 63.5607C193.986 63.7887 193.994 63.8088 193.986 64.2651C193.976 64.8922 194.025 65.2866 194.137 65.486C194.217 65.6271 194.268 65.9812 194.366 67.0592C194.377 67.1755 194.448 67.3973 194.523 67.5523C194.639 67.7893 194.658 67.9642 194.644 68.6534C194.631 69.2313 194.656 69.5426 194.726 69.71C194.807 69.9011 194.821 70.3444 194.797 71.9899C194.779 73.175 194.735 74.1299 194.69 74.2644C194.648 74.3919 194.633 74.5476 194.657 74.6104C194.682 74.6732 194.67 74.9651 194.631 75.259C194.592 75.553 194.509 76.2531 194.447 76.8149C194.164 79.3739 193.22 83.0411 192.152 85.7252C190.886 88.9087 188.145 93.7025 185.827 96.7872C183.359 100.071 180.086 103.08 175.706 106.094C171.13 109.242 166.159 111.637 161.775 112.806C158.054 113.798 153.403 114.241 149.126 114.011C144.595 113.766 141.878 113.315 139.568 112.422C139.048 112.221 138.633 112.104 138.44 112.104C138.249 112.104 138.017 112.04 137.822 111.932C137.651 111.838 137.19 111.678 136.798 111.577C134.851 111.075 133.128 110.35 131.283 109.259C130.867 109.013 130.363 108.759 130.164 108.695C129.937 108.622 129.768 108.517 129.713 108.416C129.603 108.214 129.278 108.019 129.051 108.019C128.776 108.019 125.958 105.97 123.864 104.247C120.733 101.672 118.643 99.3605 116.507 96.1125C114.745 93.4321 113.465 90.9437 112.046 87.4367C110.762 84.2634 110.041 81.5345 109.545 77.9771C109.154 75.1689 109.16 74.3422 109.614 68.2567C109.8 65.7549 110.095 64.1404 110.856 61.4594C112.415 55.9667 116.129 48.9493 119.615 44.9102C121.75 42.4368 124.024 40.5907 127.594 38.435C129.47 37.3018 131.11 36.0967 132.613 34.7473C133.099 34.3107 133.568 33.8963 133.656 33.8263C133.936 33.6014 139.105 31.8564 142.748 30.757C144.854 30.1215 146.713 29.7312 148.52 29.545C148.971 29.4986 149.37 29.4334 149.407 29.4002C149.514 29.3048 150.903 29.331 151.763 29.4447C152.194 29.5017 152.883 29.5504 153.295 29.5529C153.706 29.5553 154.187 29.5875 154.364 29.6242C154.54 29.6611 154.939 29.708 155.249 29.7288C155.56 29.7494 155.862 29.805 155.919 29.8524C156.021 29.9354 156.213 29.9377 158.436 29.8818C158.852 29.8714 159.012 29.8953 159.113 29.9825C159.186 30.0454 159.366 30.1351 159.513 30.1819C159.66 30.2286 159.814 30.3277 159.854 30.4021C159.919 30.5221 160.01 30.5373 160.667 30.5373C161.074 30.5373 161.566 30.5011 161.76 30.4569C162.19 30.3587 162.335 30.3918 162.87 30.7106C163.248 30.9357 163.339 30.9599 163.81 30.9599C164.097 30.9599 164.352 30.9282 164.376 30.8895C164.449 30.7731 164.809 30.81 164.934 30.9469C164.998 31.0172 165.086 31.1678 165.128 31.2815C165.175 31.4066 165.347 31.5785 165.565 31.7171C165.854 31.9015 165.997 31.9461 166.299 31.9461C166.685 31.9461 166.828 31.8622 166.864 31.615C166.874 31.5451 167.055 31.3925 167.268 31.2747L167.654 31.0612L167.675 30.6575C167.693 30.3188 167.676 30.2477 167.568 30.216C167.498 30.1952 167.321 30.1163 167.176 30.0407C166.856 29.8737 166.532 29.8649 166.298 30.0168C166.13 30.1255 166.112 30.1212 165.871 29.9115C165.545 29.6288 165.137 29.4254 164.785 29.3697C164.55 29.3325 164.422 29.2356 163.99 28.7691C163.56 28.304 163.439 28.2129 163.255 28.2129C163.088 28.2129 162.964 28.1394 162.743 27.9103C162.316 27.4666 162.272 27.4435 161.65 27.3355C161.337 27.2811 160.864 27.1393 160.599 27.0204C160.044 26.7718 159.723 26.7511 158.989 26.9161C158.578 27.0084 158.429 27.0134 158.138 26.9443C157.702 26.8409 157.012 26.409 156.759 26.0809C156.597 25.8708 156.518 25.8307 156.209 25.8014C155.977 25.7794 155.797 25.7161 155.704 25.6247C155.514 25.4364 155.587 25.2082 155.856 25.1497C155.968 25.1254 156.117 25.0422 156.188 24.9646C156.354 24.783 156.279 24.6549 155.841 24.374C155.58 24.2064 155.503 24.1118 155.47 23.9162C155.381 23.382 155.089 22.8166 154.613 22.255L154.379 21.9791L153.391 21.9264C150.985 21.798 150.566 21.7927 149.957 21.8833C149.38 21.9688 149.027 21.9822 148.235 21.9481C147.938 21.9352 147.224 21.988 145.634 22.1405C145.206 22.1815 144.898 22.2528 144.709 22.3547C144.526 22.4528 144.299 22.5074 144.073 22.5074C143.641 22.5074 142.834 22.6394 142.641 22.7416C142.563 22.7833 142.338 22.8416 142.142 22.8712C141.946 22.9008 141.592 22.9536 141.356 22.9886C141.119 23.0235 140.83 23.1 140.714 23.1586C140.438 23.2979 139.83 23.4231 139.429 23.4231C139.215 23.4231 138.968 23.4938 138.679 23.6382C138.441 23.7566 137.921 23.9611 137.523 24.0928C136.849 24.3156 136.753 24.3296 136.156 24.2924C135.523 24.2529 135.509 24.2554 135.033 24.5069C134.759 24.6515 134.45 24.7614 134.316 24.7614C134.146 24.7614 134.023 24.8215 133.872 24.9799C133.757 25.1001 133.463 25.3401 133.219 25.5133C132.856 25.7706 132.69 25.8401 132.309 25.8934C132.022 25.9336 131.74 26.0256 131.577 26.1325C131.43 26.2281 131.198 26.344 131.061 26.3901C130.924 26.4362 130.706 26.5799 130.577 26.7094C130.332 26.9553 130.154 26.9976 129.909 26.8683C129.767 26.7932 129.768 26.7869 129.967 26.5789C130.227 26.3069 131.042 25.7596 131.606 25.4782C131.847 25.358 132.104 25.186 132.176 25.0959C132.249 25.0058 132.414 24.8893 132.543 24.8371C132.672 24.7847 132.904 24.6513 133.059 24.5404C133.214 24.4295 133.402 24.3388 133.478 24.3388C133.717 24.3388 134.043 23.9945 134.31 23.4595L134.568 22.9429L135.057 22.7875C135.572 22.6239 135.652 22.626 136.513 22.8269C136.787 22.8909 137.236 22.9482 137.51 22.9543L138.009 22.9653L138.03 22.419C138.056 21.7453 138.154 21.6505 138.81 21.67C139.304 21.6846 139.399 21.6444 139.399 21.4201C139.399 21.1965 139.244 21.0879 138.864 21.0455C138.566 21.0124 138.525 21.0286 138.298 21.2655C138.164 21.4062 138.005 21.5213 137.944 21.5213C137.814 21.5213 137.261 21.31 137.261 21.2602C137.261 21.2412 137.361 21.1337 137.482 21.0212C137.649 20.8675 137.773 20.8169 137.984 20.8169C138.294 20.8169 138.72 20.6299 138.929 20.4017C139.037 20.2835 139.148 20.2534 139.477 20.2534C139.704 20.2534 139.909 20.2217 139.933 20.183C139.958 20.1442 140.048 20.1125 140.135 20.1125C140.221 20.1125 140.411 20.0491 140.558 19.9717C140.704 19.8942 140.934 19.8308 141.068 19.8308C141.42 19.8308 141.709 19.4886 141.442 19.3874C141.18 19.2881 140.395 19.2804 139.976 19.373ZM144.248 19.5912C143.827 19.7029 143.593 19.863 143.647 20.0019C143.702 20.1442 144.156 20.3238 144.461 20.3238H144.743V19.9012C144.743 19.6688 144.719 19.4807 144.69 19.4832C144.661 19.4858 144.461 19.5344 144.248 19.5912ZM159.227 23.5662C159.094 23.619 159.067 23.6839 159.067 23.9473C159.067 24.2225 159.093 24.278 159.263 24.3644C159.648 24.5603 160.024 24.6203 160.581 24.5749C161.086 24.5337 161.133 24.5168 161.133 24.3771C161.133 24.1933 160.86 23.9824 160.257 23.7003C159.807 23.49 159.515 23.4519 159.227 23.5662ZM156.697 24.4855C156.617 24.5722 156.573 24.734 156.573 24.9375V25.2545H156.989C157.405 25.2545 157.406 25.2551 157.952 25.7475C158.377 26.1306 158.548 26.2406 158.716 26.2406C158.895 26.2406 158.949 26.1989 159.035 25.9963C159.139 25.7506 159.171 25.1373 159.095 24.8574C159.018 24.5726 158.234 24.337 157.392 24.3451C156.926 24.3496 156.799 24.3751 156.697 24.4855ZM159.423 25.497C159.423 25.8862 159.446 25.9665 159.582 26.0605C159.814 26.2214 160.126 26.1945 160.396 25.9905C160.593 25.8424 160.635 25.7638 160.635 25.5436C160.635 25.1507 160.476 25.0432 159.899 25.0432H159.423V25.497ZM162.085 25.784C162.02 25.9516 162.195 26.5346 162.385 26.7802C162.488 26.9137 162.692 27.0511 162.896 27.1234C163.083 27.1898 163.407 27.323 163.616 27.4197C164.031 27.6111 164.357 27.6064 164.668 27.4044C164.8 27.3191 164.839 27.2313 164.839 27.0188C164.839 26.7078 164.695 26.5224 164.453 26.5224C164.062 26.5224 163.094 26.0809 162.852 25.7923C162.723 25.6387 162.144 25.6325 162.085 25.784ZM143.204 26.9155C143.311 27.1921 143.24 27.337 142.854 27.6318C142.549 27.8646 142.401 27.9311 142.189 27.9311C141.698 27.9311 141.461 27.419 141.826 27.1451C142.243 26.8318 143.115 26.6865 143.204 26.9155ZM129.599 27.7726C129.422 28.1938 129.074 28.3798 128.292 28.4714C127.963 28.5099 127.942 28.5013 127.724 28.2404C127.482 27.9505 127.437 27.7902 127.597 27.7902C127.652 27.7902 127.772 27.7279 127.864 27.6517C128.01 27.5316 128.144 27.5129 128.871 27.5108L129.709 27.5085L129.599 27.7726ZM168.806 30.6547C168.715 30.7442 168.759 31.2815 168.869 31.4373C168.963 31.5692 169.047 31.5939 169.404 31.5939H169.827V31.2468C169.827 30.9557 169.797 30.8762 169.639 30.7538C169.456 30.6114 168.915 30.5471 168.806 30.6547ZM165.872 56.5304C165.087 56.6116 164.503 56.7828 163.734 57.1578C162.46 57.7792 161.532 58.6984 160.918 59.945C160.389 61.0203 160.315 61.3619 160.318 62.7273C160.321 63.8092 160.335 63.931 160.522 64.4883C160.881 65.5604 161.361 66.3411 162.105 67.0663C163.244 68.175 164.583 68.7536 166.193 68.8324C167.505 68.8967 168.625 68.6217 169.787 67.9505C170.349 67.6261 171.322 66.6939 171.726 66.0929C173.001 64.1979 173.09 61.6388 171.953 59.6281C170.774 57.5445 168.292 56.28 165.872 56.5304ZM142.677 62.6217V68.6441H145.171H147.665V67.7636V66.8832H146.133H144.601V61.7412V56.5993H143.639H142.677V62.6217ZM134.884 56.7231C134.701 57.0163 129.789 68.5413 129.831 68.5808C129.903 68.6498 131.753 68.688 131.82 68.6218C131.849 68.5936 132.164 67.85 132.52 66.9696L133.168 65.3687L135.31 65.3501L137.453 65.3315L138.15 66.9526L138.847 68.5737H139.871C140.434 68.5737 140.895 68.5611 140.895 68.5458C140.895 68.5305 139.777 65.86 138.41 62.6115L135.924 56.7049L135.423 56.6843C135.147 56.673 134.905 56.6905 134.884 56.7231ZM149.589 62.6921V68.7145L151.246 68.7141C153.186 68.7136 153.996 68.6159 154.927 68.2704C155.839 67.9317 156.307 67.634 156.998 66.9536C157.892 66.0734 158.314 65.2863 158.583 63.9987C158.844 62.7539 158.687 61.0973 158.205 60.0144C157.683 58.842 156.671 57.8374 155.466 57.2976C154.421 56.8292 153.322 56.6711 151.103 56.6702L149.589 56.6697V62.6921ZM167.54 58.4685C168.265 58.6375 168.938 59.0246 169.549 59.625C170.395 60.4563 170.825 61.4635 170.825 62.6143C170.825 63.7908 170.411 64.7629 169.545 65.6184C168.67 66.484 167.716 66.881 166.514 66.881C165.292 66.881 164.359 66.4864 163.446 65.5834C162.567 64.7135 162.202 63.8458 162.202 62.6217C162.202 61.8886 162.329 61.3343 162.64 60.711C163.168 59.6502 164.306 58.7472 165.465 58.4696C166.011 58.3386 166.98 58.3381 167.54 58.4685ZM153.462 58.6044C154.552 58.7965 155.534 59.4067 156.094 60.2388C156.611 61.0084 156.745 61.4734 156.748 62.516C156.752 63.5915 156.586 64.1755 156.057 64.9577C155.199 66.2255 153.867 66.8733 152.101 66.8807L151.513 66.8832V62.6921V58.5011L152.208 58.5035C152.59 58.5049 153.154 58.5503 153.462 58.6044ZM136.065 61.863C136.445 62.7804 136.747 63.541 136.734 63.5533C136.722 63.5656 136.085 63.567 135.318 63.5565L133.925 63.5374L134.613 61.8646C134.992 60.9446 135.317 60.1926 135.337 60.1935C135.357 60.1944 135.684 60.9457 136.065 61.863ZM119.339 72.341C116.876 72.8793 115.079 74.6253 114.483 77.0614C114.305 77.7908 114.319 79.0751 114.514 79.8584C115.057 82.0346 116.724 83.7389 118.926 84.3684C119.661 84.5785 121.358 84.5951 122.082 84.3993C122.529 84.2787 123.98 83.6139 124.24 83.4111C124.354 83.322 124.364 83.1858 124.347 81.9946L124.327 80.6766L124.078 81.0079C123.597 81.647 122.621 82.2552 121.722 82.4759C121.139 82.619 120.042 82.6241 119.517 82.4862C117.423 81.9359 115.985 79.84 116.305 77.8025C116.533 76.3522 117.339 75.2033 118.565 74.5832C119.351 74.1852 119.709 74.1023 120.622 74.1072C121.284 74.1108 121.48 74.1394 121.886 74.2919C122.612 74.5649 123.12 74.891 123.772 75.5038L124.363 76.0593L124.328 75.6447C124.309 75.4166 124.273 74.823 124.249 74.3256L124.205 73.4211L123.783 73.1515C123.221 72.7922 122.455 72.4845 121.783 72.348C121.124 72.2142 119.935 72.2108 119.339 72.341ZM130.916 72.3414C128.903 72.7384 127.099 74.2368 126.356 76.1292C125.735 77.7104 125.798 79.5171 126.528 81.0716C127.141 82.3756 128.416 83.5721 129.767 84.1116C130.655 84.466 131.027 84.5281 132.237 84.5236C133.285 84.5197 133.427 84.5034 133.983 84.3237C136.044 83.6577 137.469 82.2491 138.158 80.1959C138.344 79.639 138.359 79.5159 138.362 78.4349C138.366 77.0977 138.295 76.7596 137.791 75.7231C136.922 73.9346 135.318 72.7104 133.353 72.336C132.716 72.2146 131.547 72.2172 130.916 72.3414ZM162.247 72.3475C161.062 72.609 160.128 73.1005 159.261 73.9188C158.603 74.5394 158.23 75.0529 157.855 75.8556C157.44 76.7439 157.32 77.3254 157.325 78.4349C157.329 79.5588 157.44 80.0666 157.89 81.0151C158.267 81.8102 158.607 82.2696 159.298 82.9173C160.56 84.1002 162.048 84.6271 163.895 84.5452C166.955 84.4095 169.381 82.137 169.753 79.0578C169.894 77.8926 169.69 76.7968 169.119 75.6526C168.343 74.0957 167.077 73.0342 165.338 72.4808C164.822 72.3168 164.584 72.2845 163.734 72.2637C163.019 72.2463 162.598 72.27 162.247 72.3475ZM140.396 78.3997V84.3517H141.394H142.392V81.9322V79.5127L143.188 79.4649C144.516 79.3851 145.216 79.1346 145.926 78.4854C146.725 77.7539 147.062 76.8602 147.005 75.6174C146.953 74.4513 146.556 73.6767 145.722 73.1103C144.939 72.5781 144.198 72.4477 141.959 72.4477H140.396V78.3997ZM149.233 78.3922V84.3517H150.23H151.228V81.9324V79.5131L151.994 79.469C153.412 79.3877 154.243 79.0576 154.953 78.2941C155.56 77.6414 155.858 76.8304 155.859 75.8259C155.862 74.1688 155.026 73.0522 153.456 72.6135C153.14 72.5251 152.606 72.491 151.139 72.4657L149.233 72.4327V78.3922ZM171.823 78.3997V84.3517H174.352H176.882V83.4712V82.5908H175.314H173.747V77.5192V72.4477H172.785H171.823V78.3997ZM183.044 72.5219C183.016 72.566 181.844 75.222 180.439 78.4241L177.885 84.246L178.328 84.2906C178.571 84.3151 179.043 84.3383 179.376 84.3421L179.982 84.349L180.635 82.7479L181.287 81.1468L183.485 81.1302L185.683 81.1137L186.363 82.6799L187.043 84.246L188.091 84.2655C188.667 84.2763 189.139 84.2763 189.139 84.2655C189.139 84.2548 188.004 81.5993 186.617 78.3645L184.096 72.4829L183.595 72.4624C183.276 72.4493 183.076 72.471 183.044 72.5219ZM133.573 74.298C134.275 74.5531 134.795 74.8887 135.291 75.4065C135.809 75.9481 136.216 76.6783 136.376 77.3511C136.533 78.0122 136.481 79.1481 136.265 79.7537C135.847 80.9292 134.797 81.9666 133.607 82.3815C132.989 82.5967 131.767 82.6513 131.136 82.4916C129.901 82.1787 128.931 81.4105 128.319 80.2601C127.958 79.5796 127.832 78.9721 127.876 78.118C127.934 76.9736 128.308 76.1443 129.132 75.3302C129.686 74.7827 130.343 74.4016 131.07 74.207C131.802 74.0108 132.891 74.0504 133.573 74.298ZM164.842 74.2645C166.192 74.7362 167.211 75.7098 167.617 76.9174C168.163 78.5381 167.768 80.1844 166.546 81.3911C165.732 82.1943 164.746 82.5908 163.564 82.5908C162.299 82.5908 161.369 82.2099 160.49 81.331C159.873 80.7146 159.555 80.1699 159.35 79.3791C158.922 77.7253 159.56 75.9432 160.94 74.9387C161.518 74.518 161.822 74.3691 162.441 74.2029C163.097 74.0268 164.247 74.0563 164.842 74.2645ZM143.986 74.3786C144.494 74.4967 144.727 74.6577 144.942 75.038C145.277 75.6295 145.208 76.5368 144.795 77.0027C144.42 77.4249 144.099 77.5397 143.193 77.5756L142.392 77.6074V75.9433V74.2791L142.98 74.2802C143.303 74.2808 143.756 74.3251 143.986 74.3786ZM152.701 74.3569C152.95 74.3996 153.257 74.5039 153.384 74.5885C154.067 75.0431 154.202 76.3079 153.64 76.9824C153.276 77.4182 152.948 77.5392 152.03 77.5756L151.228 77.6074V75.9433V74.2791H151.739C152.02 74.2791 152.453 74.3141 152.701 74.3569ZM184.24 77.6083C184.622 78.5087 184.935 79.2691 184.935 79.298C184.935 79.327 184.293 79.3506 183.509 79.3506C182.725 79.3506 182.084 79.3282 182.084 79.3009C182.084 79.2081 183.467 75.9696 183.506 75.9704C183.527 75.9707 183.858 76.7078 184.24 77.6083ZM202.353 83.9702C202.417 84.2238 202.322 84.9923 202.205 85.1598C202.152 85.2362 202.108 85.4436 202.108 85.6206C202.108 85.8669 201.981 86.2309 201.566 87.1721C201.267 87.8485 200.608 89.4162 200.102 90.6559C199.174 92.9254 198.381 94.5263 197.095 96.7271C196.797 97.2383 196.48 97.8031 196.392 97.9824C196.274 98.2221 196.181 98.3186 196.04 98.3465C195.887 98.3767 195.712 98.5878 195.183 99.3803C194.818 99.9281 194.284 100.65 193.995 100.984C193.707 101.319 193.16 102.016 192.778 102.534C192.396 103.052 191.954 103.571 191.794 103.687C191.569 103.851 191.512 103.933 191.54 104.054C191.569 104.18 191.413 104.364 190.697 105.04C190.214 105.497 189.16 106.504 188.355 107.279C187.549 108.054 186.298 109.162 185.574 109.742C184.279 110.778 182.804 112.007 181.937 112.772C181.694 112.986 181.46 113.161 181.416 113.161C181.166 113.161 180.391 113.626 180.007 114.006C179.635 114.373 179.481 114.467 178.842 114.714C178.437 114.87 177.822 115.176 177.476 115.393C177.13 115.611 176.778 115.784 176.693 115.779C176.602 115.773 176.494 115.84 176.425 115.943C176.259 116.195 175.985 116.351 175.609 116.409C175.017 116.501 174.582 116.707 174.19 117.081C173.928 117.331 173.737 117.452 173.558 117.481C173.417 117.503 173.246 117.571 173.179 117.631C173.111 117.692 172.867 117.789 172.635 117.849C172.404 117.908 172.01 118.05 171.761 118.165C171.231 118.408 171.11 118.422 171.11 118.239C171.11 118.153 171.232 118.035 171.448 117.911C171.635 117.805 171.899 117.631 172.036 117.525C172.174 117.42 172.494 117.281 172.749 117.217C173.244 117.093 173.587 116.91 175.101 115.964C175.63 115.633 176.796 114.944 177.693 114.432C179.565 113.366 180.819 112.563 182.074 111.631C182.558 111.272 183.094 110.916 183.265 110.841C183.777 110.617 184.218 110.287 185.006 109.536C185.417 109.144 186.011 108.603 186.324 108.333C186.638 108.064 187.377 107.384 187.966 106.822C188.556 106.26 189.375 105.483 189.786 105.096C190.355 104.559 190.597 104.273 190.798 103.898C190.982 103.554 191.159 103.335 191.384 103.174C191.56 103.046 191.838 102.777 192 102.575C192.275 102.233 192.702 101.453 192.702 101.292C192.702 101.253 192.846 101.132 193.021 101.022C193.444 100.759 193.593 100.573 194.203 99.5535C194.487 99.0796 195.062 98.1675 195.481 97.5266C195.9 96.8857 196.475 95.9814 196.757 95.517C197.04 95.0526 197.377 94.5771 197.506 94.4604C197.786 94.2074 197.985 93.8365 198.15 93.2621C198.217 93.0296 198.414 92.598 198.588 92.3029C198.964 91.664 199.388 90.7159 199.623 89.9867C199.716 89.6962 199.899 89.2841 200.029 89.071C200.475 88.3408 200.912 87.3618 201.047 86.7902C201.247 85.9435 201.893 84.1289 202.06 83.9467C202.246 83.743 202.296 83.7471 202.353 83.9702ZM170.422 118.399C170.311 118.53 170.107 118.693 169.97 118.76C169.639 118.924 168.844 119.148 168.595 119.148H168.396L168.594 118.903C168.854 118.58 169.844 118.19 170.458 118.168L170.625 118.162L170.422 118.399Z"/>
</g>
</symbol></svg>